<?xml version="1.0" encoding="UTF-8"?>
<svg xmlns="http://www.w3.org/2000/svg" width="95.84" height="95.84" version="1.1" xmlns:cc="http://creativecommons.org/ns#" xmlns:dc="http://purl.org/dc/elements/1.1/" xmlns:inkscape="http://www.inkscape.org/namespaces/inkscape" xmlns:rdf="http://www.w3.org/1999/02/22-rdf-syntax-ns#" xmlns:sodipodi="http://sodipodi.sourceforge.net/DTD/sodipodi-0.dtd" xmlns:svg="http://www.w3.org/2000/svg" viewBox="0 0 71.9 71.9">
  <!-- Generator: Adobe Illustrator 29.1.0, SVG Export Plug-In . SVG Version: 2.1.0 Build 142)  -->
  <defs>
    <style>
      .st0 {
        fill: #fff;
      }

      .st1 {
        fill-opacity: .5;
      }
    </style>
  </defs>
  <g id="svg8" sodipodi:docname="TWClogo.svg">
    <sodipodi:namedview id="base" bordercolor="#666666" borderopacity="1.0" fit-margin-bottom="0" fit-margin-left="0" fit-margin-right="0" fit-margin-top="0" inkscape:current-layer="g4493" inkscape:cx="-52.041656" inkscape:cy="113.06652" inkscape:document-units="mm" inkscape:pageopacity="0.0" inkscape:pageshadow="2" inkscape:window-height="1017" inkscape:window-maximized="1" inkscape:window-width="1920" inkscape:window-x="-8" inkscape:window-y="-8" inkscape:zoom="1.979899" pagecolor="#ffffff" showgrid="false"/>
    <g id="layer1" inkscape:groupmode="layer" inkscape:label="Layer 1">
      <g id="g4493" inkscape:label="The_weather_channel">
        <path id="path4521" class="st1" d="M71.9,71.9H0V0h71.9v71.9Z" inkscape:connector-curvature="0"/>
      </g>
    </g>
    <g>
      <path class="st0" d="M14,29.2c-.8,1-1.9,1.7-3,1.8-.5,0-1.1,0-1.8,0h-3v-12.5h2.5c.7,0,1.7,0,2.2,0,1.1,0,2,.5,2.7,1.2,1.2,1.1,1.7,2.7,1.7,5s-.4,3.2-1.3,4.3ZM11.8,21.5c-.4-.7-1-1-2-1h-1.2v8.5h1.4c1.7,0,2.4-1.3,2.4-3.9s-.1-2.7-.6-3.5Z"/>
      <path class="st0" d="M16.9,31v-12.5h2.6v12.5h-2.6Z"/>
      <path class="st0" d="M29.3,20.6h-3v10.4h-2.6v-10.4h-3.1v-2.1h9l-.4,2.1Z"/>
      <path class="st0" d="M16.8,48.1h-2.8l-1.1-5.1c-.3-1.5-.6-3-.6-3.5,0,.3-.3,1.9-.6,3.5l-1,5.1h-2.9l-3-12.6h2.7l1.1,4.9c.5,2.2.6,3.9.7,4.1,0-.5.3-2.3.6-4l1.1-5.1h2.8l1.2,5.6c.2,1.1.5,3.1.5,3.3,0-.4.4-2.9.7-4.1l1-4.8h2.6l-3,12.6Z"/>
      <path class="st0" d="M22.5,44.2h0c0,1.5.7,2.3,1.9,2.3s1.6-.3,2.3-.9l.9,1.4c-1.1.9-2.2,1.3-3.5,1.3-2.6,0-4.4-1.9-4.4-4.8s.3-2.8,1.2-3.7c.8-.8,1.7-1.2,2.9-1.2s2.1.4,2.7,1c.8.9,1.2,2.1,1.2,4v.6h-5.3ZM25.3,42.3c0-.7,0-1-.3-1.4-.2-.4-.6-.5-1.1-.5-.9,0-1.4.7-1.4,2h0s2.8,0,2.8,0h0Z"/>
      <path class="st0" d="M35.5,48.5c-.6-.2-1.1-.6-1.3-1.1-.2.2-.4.4-.6.5-.5.3-1.1.5-1.9.5-2.1,0-3.2-1-3.2-2.9s1.5-3.2,4.4-3.2.3,0,.5,0v-.4c0-1-.2-1.4-1.1-1.4s-1.7.4-2.7,1l-1-1.7c.5-.3.8-.5,1.5-.8.9-.4,1.7-.5,2.5-.5,1.5,0,2.6.6,3,1.6.1.4.2.7.2,1.7v3.1c0,1,0,1.4.8,2.1l-1.3,1.5ZM33.4,44c-1.7,0-2.3.3-2.3,1.4s.5,1.2,1.1,1.2.9-.2,1.3-.6v-2s0,0,0,0Z"/>
      <path class="st0" d="M40.7,48.2c-1.2,0-2.2-.5-2.5-1.3-.1-.4-.2-.6-.2-1.4v-5h-.9v-1.7h.9c0-.9,0-1.5,0-2.2l2.4-.6c0,.8-.1,1.9-.1,2.8h2.2l-.6,1.7h-1.5v4.6c0,1.2.2,1.5,1,1.5s.4,0,.9-.2l.3,1.4c-.7.3-1.3.4-2,.4Z"/>
      <path class="st0" d="M49,48v-6.2c0-.9-.3-1.3-.9-1.3s-1.4.4-1.9.8v6.6h-2.4v-10.7c0-.9,0-1.7-.2-2.1l2.5-.6c.1.5.2,1.4.2,2.3v1.8c0,.3,0,.7,0,.8.6-.6,1.7-1,2.6-1s2.1.5,2.4,1.3c.2.5.2.8.2,1.7v6.4h-2.4Z"/>
      <path class="st0" d="M55.5,44.2h0c0,1.5.7,2.3,1.9,2.3s1.6-.3,2.3-.9l.9,1.4c-1.1.9-2.2,1.3-3.5,1.3-2.6,0-4.4-1.9-4.4-4.8s.3-2.8,1.2-3.7c.8-.8,1.7-1.2,2.9-1.2s2.1.4,2.7,1c.8.9,1.2,2.1,1.2,4v.6h-5.3ZM58.3,42.3c0-.7,0-1-.3-1.4-.2-.4-.6-.5-1.1-.5-.9,0-1.4.7-1.4,2h0s2.8,0,2.8,0h0Z"/>
      <path class="st0" d="M66.8,40.9c-.2-.1-.4-.2-.7-.2-.5,0-1,.3-1.5.8v6.5h-2.4v-6.2c0-1.2-.1-2.2-.3-2.7l2.2-.6c.2.4.3.8.4,1.3.5-.7,1.3-1.3,2.2-1.3s.5,0,.9.2l-.7,2.1Z"/>
      <path class="st0" d="M11.2,65.2c-1.7,0-3.1-.6-4.1-1.7-1-1.1-1.5-2.6-1.5-4.5s.3-2.8.8-3.9c1-1.8,2.8-2.9,4.8-2.9s2.5.4,3.2,1l-1.1,1.7c-.6-.5-1.3-.7-2-.7s-1.7.4-2.1,1.1c-.5.7-.7,1.8-.7,3.2s.1,2.7.5,3.3c.5.9,1.3,1.4,2.4,1.4s1.4-.2,2.1-.8l1.2,1.6c-1,.8-2.1,1.2-3.5,1.2Z"/>
      <path class="st0" d="M21.1,65v-6.2c0-.9-.3-1.3-.9-1.3s-1.4.4-1.9.8v6.6h-2.4v-10.7c0-.9,0-1.7-.2-2.1l2.5-.6c.1.5.2,1.4.2,2.3v1.8c0,.3,0,.7,0,.8.6-.6,1.7-1,2.6-1s2.1.5,2.4,1.3c.2.5.2.8.2,1.7v6.4h-2.4Z"/>
      <path class="st0" d="M31.8,65.5c-.6-.2-1.1-.6-1.3-1.1-.2.2-.4.4-.6.5-.5.3-1.1.5-1.9.5-2.1,0-3.2-1-3.2-2.9s1.5-3.2,4.4-3.2.3,0,.5,0v-.4c0-1-.2-1.4-1.1-1.4s-1.7.4-2.7,1l-1-1.7c.5-.3.8-.5,1.5-.8.9-.4,1.7-.5,2.5-.5,1.5,0,2.6.6,3,1.6.1.4.2.7.2,1.7v3.1c0,1,0,1.4.8,2.1l-1.3,1.5ZM29.7,61c-1.7,0-2.3.3-2.3,1.4s.5,1.2,1.1,1.2.9-.2,1.3-.6v-2s0,0,0,0Z"/>
      <path class="st0" d="M39.2,65v-6c0-1-.2-1.3-.8-1.3s-1.1.3-1.7.8v6.5h-2.4v-6.7c0-.8-.1-1.5-.3-2.2l2.1-.6c.2.4.3.8.3,1.2.4-.3.7-.5,1.1-.7.5-.3,1.1-.4,1.7-.4,1,0,1.9.5,2.2,1.3.1.3.2.7.2,1.3v6.7h-2.4Z"/>
      <path class="st0" d="M48.4,65v-6c0-1-.2-1.3-.8-1.3s-1.1.3-1.7.8v6.5h-2.4v-6.7c0-.8-.1-1.5-.3-2.2l2.1-.6c.2.4.3.8.3,1.2.4-.3.7-.5,1.1-.7.5-.3,1.1-.4,1.7-.4,1,0,1.9.5,2.2,1.3.1.3.2.7.2,1.3v6.7h-2.4Z"/>
      <path class="st0" d="M54.9,61.2h0c0,1.5.7,2.3,1.9,2.3s1.6-.3,2.3-.9l.9,1.4c-1.1.9-2.2,1.3-3.5,1.3-2.6,0-4.4-1.9-4.4-4.8s.3-2.8,1.2-3.7c.8-.8,1.7-1.2,2.9-1.2s2.1.4,2.7,1c.8.9,1.2,2.1,1.2,4v.6h-5.3ZM57.8,59.3c0-.7,0-1-.3-1.4-.2-.4-.6-.5-1.1-.5-.9,0-1.4.7-1.4,2h0s2.8,0,2.8,0h0Z"/>
      <path class="st0" d="M64,65.2c-1,0-1.9-.5-2.1-1.3-.2-.5-.2-.8-.2-2.1v-6.9c0-1.2,0-1.9-.1-2.8l2.5-.6c0,.5.1,1.1.1,2.4v7.2c0,1.6,0,1.8.2,2.1,0,.2.3.3.5.3s.1,0,.3,0l.4,1.4c-.4.2-.9.3-1.4.3Z"/>
    </g>
  </g>
</svg>